<svg width="16" height="16" viewBox="0 0 16 16" fill="none" xmlns="http://www.w3.org/2000/svg">
<rect x="1.33337" y="2.66669" width="13.3333" height="12" rx="1" fill="white" stroke="#1A1A1C" stroke-width="1.2"/>
<path d="M1.33337 3.66669C1.33337 3.1144 1.78109 2.66669 2.33337 2.66669H13.6667C14.219 2.66669 14.6667 3.1144 14.6667 3.66669V6.00002H1.33337V3.66669Z" fill="white" stroke="#1A1A1C" stroke-width="1.2"/>
<path d="M4 1.33334V3.85587" stroke="#1A1A1C" stroke-width="1.2" stroke-linecap="round"/>
<path d="M12 1.33334V3.85587" stroke="#1A1A1C" stroke-width="1.2" stroke-linecap="round"/>
<path d="M4.66667 9.33333C5.03486 9.33333 5.33333 9.03486 5.33333 8.66667C5.33333 8.29848 5.03486 8 4.66667 8C4.29848 8 4 8.29848 4 8.66667C4 9.03486 4.29848 9.33333 4.66667 9.33333Z" fill="#1A1A1C"/>
<path d="M8.00004 9.33333C8.36823 9.33333 8.66671 9.03486 8.66671 8.66667C8.66671 8.29848 8.36823 8 8.00004 8C7.63185 8 7.33337 8.29848 7.33337 8.66667C7.33337 9.03486 7.63185 9.33333 8.00004 9.33333Z" fill="#1A1A1C"/>
<path d="M11.3333 9.33333C11.7015 9.33333 12 9.03486 12 8.66667C12 8.29848 11.7015 8 11.3333 8C10.9651 8 10.6666 8.29848 10.6666 8.66667C10.6666 9.03486 10.9651 9.33333 11.3333 9.33333Z" fill="#1A1A1C"/>
<path d="M4.66667 12C5.03486 12 5.33333 11.7015 5.33333 11.3333C5.33333 10.9651 5.03486 10.6667 4.66667 10.6667C4.29848 10.6667 4 10.9651 4 11.3333C4 11.7015 4.29848 12 4.66667 12Z" fill="#1A1A1C"/>
<path d="M8.00004 12C8.36823 12 8.66671 11.7015 8.66671 11.3333C8.66671 10.9651 8.36823 10.6667 8.00004 10.6667C7.63185 10.6667 7.33337 10.9651 7.33337 11.3333C7.33337 11.7015 7.63185 12 8.00004 12Z" fill="#1A1A1C"/>
<path d="M11.3333 12C11.7015 12 12 11.7015 12 11.3333C12 10.9651 11.7015 10.6667 11.3333 10.6667C10.9651 10.6667 10.6666 10.9651 10.6666 11.3333C10.6666 11.7015 10.9651 12 11.3333 12Z" fill="#1A1A1C"/>
</svg>
