<svg width="16" height="16" viewBox="0 0 16 16" fill="none" xmlns="http://www.w3.org/2000/svg">
<circle cx="8" cy="8" r="7.5" stroke="#1A1A1C"/>
<path d="M2 5.33334H2.78492V6.05616H2V5.33334ZM2.03193 6.70512H2.75033V9.89185H2.03193V6.70512Z" fill="#1A1A1C"/>
<path d="M6.57916 9.40118C6.22262 9.8004 5.74457 10 5.14501 10C4.549 10 4.102 9.79688 3.80399 9.39063C3.59468 9.10396 3.49002 8.74783 3.49002 8.32223C3.49002 7.87376 3.61508 7.49213 3.86519 7.17732C4.17384 6.79393 4.58625 6.60223 5.10244 6.60223C5.63282 6.60223 6.07982 6.76227 6.44346 7.08235L6.0949 7.57039C5.81463 7.29955 5.5051 7.16413 5.1663 7.16413C4.85765 7.16413 4.61641 7.28636 4.44257 7.53082C4.29712 7.73834 4.22439 7.99951 4.22439 8.31431C4.22439 8.63967 4.29978 8.90083 4.45055 9.09781C4.62262 9.31764 4.86829 9.42756 5.18758 9.42756C5.57428 9.42756 5.89268 9.26928 6.14279 8.95271L6.57916 9.40118Z" fill="#1A1A1C"/>
<path d="M8.67051 6.60223C9.15832 6.60223 9.56098 6.76667 9.87849 7.09554C10.18 7.40683 10.3308 7.80869 10.3308 8.30112C10.3308 8.77245 10.196 9.16112 9.92639 9.46713C9.61064 9.82238 9.18936 10 8.66253 10C8.11973 10 7.69047 9.81183 7.37472 9.43547C7.12284 9.13298 6.9969 8.75486 6.9969 8.30112C6.9969 7.66975 7.2337 7.19667 7.70732 6.88186C7.98758 6.69544 8.30865 6.60223 8.67051 6.60223ZM8.65987 7.14303C8.45233 7.14303 8.26608 7.21426 8.10111 7.35671C7.85455 7.56775 7.73126 7.88256 7.73126 8.30112C7.73126 8.49809 7.76142 8.67572 7.82173 8.834C7.88027 8.98525 7.96364 9.111 8.07184 9.21124C8.23503 9.36249 8.4337 9.43811 8.66785 9.43811C8.97827 9.43811 9.2204 9.30885 9.39424 9.05032C9.52905 8.84807 9.59645 8.59746 9.59645 8.29848C9.59645 7.95202 9.50599 7.67151 9.32506 7.45695C9.14767 7.24767 8.92594 7.14303 8.65987 7.14303Z" fill="#1A1A1C"/>
<path d="M11.749 6.70512V7.25646C12.047 6.84845 12.4195 6.64444 12.8665 6.64444C13.1805 6.64444 13.4412 6.73413 13.6488 6.91352C13.8829 7.11577 14 7.4464 14 7.90542V9.89185H13.2816V7.99511C13.2816 7.74538 13.2346 7.55368 13.1406 7.42002C13.0501 7.29164 12.8976 7.22745 12.6829 7.22745C12.463 7.22745 12.2634 7.3189 12.0843 7.5018C11.953 7.63546 11.8519 7.80781 11.7809 8.01885V9.89185H11.0625V6.70512H11.749Z" fill="#1A1A1C"/>
</svg>
