<svg width="13" height="12" viewBox="0 0 13 12" fill="none" xmlns="http://www.w3.org/2000/svg">
<circle cx="6.5" cy="6" r="5.5" stroke="#1A1A1C"/>
<path d="M2 4H2.58869V4.54211H2V4ZM2.02395 5.02883H2.56275V7.41888H2.02395V5.02883Z" fill="#1A1A1C"/>
<path d="M5.43437 7.05088C5.16696 7.35029 4.80843 7.5 4.35876 7.5C3.91175 7.5 3.5765 7.34765 3.35299 7.04296C3.19601 6.82796 3.11752 6.56086 3.11752 6.24166C3.11752 5.90531 3.21131 5.61909 3.39889 5.38298C3.63038 5.09544 3.93969 4.95167 4.32683 4.95167C4.72461 4.95167 5.05987 5.0717 5.33259 5.31176L5.07118 5.67778C4.86098 5.47466 4.62882 5.37309 4.37472 5.37309C4.14324 5.37309 3.96231 5.46476 3.83193 5.64811C3.72284 5.80375 3.66829 5.99962 3.66829 6.23573C3.66829 6.47974 3.72483 6.67562 3.83792 6.82335C3.96696 6.98822 4.15122 7.07066 4.39069 7.07066C4.68071 7.07066 4.91951 6.95195 5.1071 6.71453L5.43437 7.05088Z" fill="#1A1A1C"/>
<path d="M7.00288 4.95167C7.36874 4.95167 7.67073 5.075 7.90887 5.32165C8.13503 5.55512 8.24812 5.85651 8.24812 6.22583C8.24812 6.57933 8.14701 6.87083 7.94479 7.10034C7.70798 7.36678 7.39202 7.5 6.9969 7.5C6.5898 7.5 6.26785 7.35887 6.03104 7.0766C5.84213 6.84973 5.74767 6.56614 5.74767 6.22583C5.74767 5.75231 5.92528 5.39749 6.28049 5.16139C6.49069 5.02158 6.73149 4.95167 7.00288 4.95167ZM6.9949 5.35726C6.83925 5.35726 6.69956 5.41068 6.57583 5.51752C6.39091 5.67581 6.29845 5.91191 6.29845 6.22583C6.29845 6.37356 6.32106 6.50678 6.3663 6.62549C6.4102 6.73893 6.47273 6.83324 6.55388 6.90842C6.67628 7.02186 6.82528 7.07858 7.00089 7.07858C7.2337 7.07858 7.4153 6.98163 7.54568 6.78773C7.64679 6.63605 7.69734 6.44809 7.69734 6.22386C7.69734 5.96401 7.62949 5.75363 7.49379 5.59271C7.36075 5.43575 7.19446 5.35726 6.9949 5.35726Z" fill="#1A1A1C"/>
<path d="M9.31175 5.02883V5.44234C9.53526 5.13633 9.81463 4.98332 10.1499 4.98332C10.3854 4.98332 10.5809 5.05059 10.7366 5.18513C10.9122 5.33682 11 5.58479 11 5.92906V7.41888H10.4612V5.99633C10.4612 5.80903 10.4259 5.66525 10.3554 5.56501C10.2876 5.46872 10.1732 5.42058 10.0122 5.42058C9.84723 5.42058 9.69756 5.48917 9.56319 5.62634C9.46475 5.72659 9.38891 5.85585 9.3357 6.01413V7.41888H8.7969V5.02883H9.31175Z" fill="#1A1A1C"/>
</svg>
