<svg width="11" height="14" viewBox="0 0 11 14" fill="none" xmlns="http://www.w3.org/2000/svg">
<g clip-path="url(#clip0_2712_43400)">
<path d="M5.86797 1.13208C5.52617 0.790283 4.97109 0.790283 4.6293 1.13208L1.1293 4.63208C0.7875 4.97388 0.7875 5.52895 1.1293 5.87075C1.47109 6.21255 2.02617 6.21255 2.36797 5.87075L4.375 3.86372V5.68755V8.75005C4.375 9.23403 4.76602 9.62505 5.25 9.62505C5.73398 9.62505 6.125 9.23403 6.125 8.75005V5.68755V3.86372L8.13203 5.87075C8.47383 6.21255 9.02891 6.21255 9.3707 5.87075C9.7125 5.52895 9.7125 4.97388 9.3707 4.63208L5.8707 1.13208H5.86797ZM0.875 11.375C0.391016 11.375 0 11.7661 0 12.25C0 12.734 0.391016 13.125 0.875 13.125H9.625C10.109 13.125 10.5 12.734 10.5 12.25C10.5 11.7661 10.109 11.375 9.625 11.375H0.875Z" fill="white"/>
</g>
<defs>
<clipPath id="clip0_2712_43400">
<rect width="10.5" height="14" fill="white"/>
</clipPath>
</defs>
</svg>
