<svg width="14" height="14" viewBox="0 0 14 14" fill="none" xmlns="http://www.w3.org/2000/svg">
<g clip-path="url(#clip0_2712_43407)">
<path d="M7 1.3125C8.50842 1.3125 9.95506 1.91172 11.0217 2.97833C12.0883 4.04494 12.6875 5.49158 12.6875 7C12.6875 8.50842 12.0883 9.95506 11.0217 11.0217C9.95506 12.0883 8.50842 12.6875 7 12.6875C5.49158 12.6875 4.04494 12.0883 2.97833 11.0217C1.91172 9.95506 1.3125 8.50842 1.3125 7C1.3125 5.49158 1.91172 4.04494 2.97833 2.97833C4.04494 1.91172 5.49158 1.3125 7 1.3125ZM7 14C8.85652 14 10.637 13.2625 11.9497 11.9497C13.2625 10.637 14 8.85652 14 7C14 5.14348 13.2625 3.36301 11.9497 2.05025C10.637 0.737498 8.85652 0 7 0C5.14348 0 3.36301 0.737498 2.05025 2.05025C0.737498 3.36301 0 5.14348 0 7C0 8.85652 0.737498 10.637 2.05025 11.9497C3.36301 13.2625 5.14348 14 7 14ZM6.34375 9.40625C6.34375 9.76992 6.63633 10.0625 7 10.0625C7.36367 10.0625 7.65625 9.76992 7.65625 9.40625V7.65625H9.40625C9.76992 7.65625 10.0625 7.36367 10.0625 7C10.0625 6.63633 9.76992 6.34375 9.40625 6.34375H7.65625V4.59375C7.65625 4.23008 7.36367 3.9375 7 3.9375C6.63633 3.9375 6.34375 4.23008 6.34375 4.59375V6.34375H4.59375C4.23008 6.34375 3.9375 6.63633 3.9375 7C3.9375 7.36367 4.23008 7.65625 4.59375 7.65625H6.34375V9.40625Z" fill="white"/>
</g>
<defs>
<clipPath id="clip0_2712_43407">
<rect width="14" height="14" fill="white"/>
</clipPath>
</defs>
</svg>
