<svg width="15" height="14" viewBox="0 0 15 14" fill="none" xmlns="http://www.w3.org/2000/svg">
<path d="M6.99829 0.878052C10.3807 0.878052 13.1233 3.62063 13.1233 7.00305C13.1233 10.3855 10.3807 13.1281 6.99829 13.1281C3.61587 13.1281 0.873291 10.3855 0.873291 7.00305C0.873291 3.62063 3.61587 0.878052 6.99829 0.878052ZM4.73696 9.33L5.63931 9.3259L6.99829 7.70579L8.35591 9.32454L9.25962 9.32864C9.31978 9.32864 9.36899 9.28079 9.36899 9.21926C9.36899 9.19329 9.35942 9.16868 9.34302 9.14817L7.56431 7.02903L9.34302 4.91125C9.35954 4.89122 9.3687 4.86613 9.36899 4.84016C9.36899 4.78 9.31978 4.73079 9.25962 4.73079L8.35591 4.73489L6.99829 6.355L5.64067 4.73626L4.73833 4.73215C4.67817 4.73215 4.62895 4.78 4.62895 4.84153C4.62895 4.8675 4.63853 4.89211 4.65493 4.91262L6.43091 7.0304L4.65356 9.14954C4.63716 9.17004 4.62759 9.19465 4.62759 9.22063C4.62759 9.28079 4.67681 9.33 4.73696 9.33Z" fill="#D9D9D9"/>
</svg>
