<svg width="14" height="12" viewBox="0 0 14 12" fill="none" xmlns="http://www.w3.org/2000/svg">
<g opacity="0.35">
<g clip-path="url(#clip0_2712_43415)">
<path d="M13.4953 5.98828C13.4953 6.41016 13.1437 6.74063 12.7453 6.74063H11.9953L12.0117 10.4953C12.0117 10.5586 12.007 10.6219 12 10.6852V11.0625C12 11.5805 11.5805 12 11.0625 12H10.6875C10.6617 12 10.6359 12 10.6102 11.9977C10.5773 12 10.5445 12 10.5117 12H9.75H9.1875C8.66953 12 8.25 11.5805 8.25 11.0625V10.5V9C8.25 8.58516 7.91484 8.25 7.5 8.25H6C5.58516 8.25 5.25 8.58516 5.25 9V10.5V11.0625C5.25 11.5805 4.83047 12 4.3125 12H3.75H3.00234C2.96719 12 2.93203 11.9977 2.89687 11.9953C2.86875 11.9977 2.84063 12 2.8125 12H2.4375C1.91953 12 1.5 11.5805 1.5 11.0625V8.4375C1.5 8.41641 1.5 8.39297 1.50234 8.37188V6.74063H0.75C0.328125 6.74063 0 6.4125 0 5.98828C0 5.77734 0.0703125 5.58984 0.234375 5.42578L6.24375 0.1875C6.40781 0.0234375 6.59531 0 6.75937 0C6.92344 0 7.11094 0.046875 7.25156 0.164062L13.2375 5.42578C13.425 5.58984 13.5187 5.77734 13.4953 5.98828Z" fill="white"/>
</g>
</g>
<defs>
<clipPath id="clip0_2712_43415">
<rect width="13.5" height="12" fill="white"/>
</clipPath>
</defs>
</svg>
