<svg width="18" height="18" viewBox="0 0 18 18" fill="none" xmlns="http://www.w3.org/2000/svg">
<g opacity="0.75">
<g clip-path="url(#clip0_2712_43359)">
<path d="M8.99995 0C9.59761 0 10.1812 0.0597656 10.7507 0.16875C11.0285 0.221484 11.5171 0.383203 11.7843 0.875391C11.8546 1.00547 11.9109 1.14258 11.946 1.29023L12.273 2.64375C12.3222 2.84766 12.6667 3.04805 12.8671 2.98828L14.2031 2.59453C14.3437 2.55234 14.4878 2.53125 14.632 2.52773C15.198 2.51016 15.5812 2.8582 15.7675 3.06914C16.5445 3.95156 17.1421 4.98867 17.5218 6.10313C17.6132 6.37031 17.7187 6.86953 17.4269 7.34766C17.3496 7.47422 17.2546 7.59375 17.1457 7.69922L16.1367 8.65898C15.989 8.79961 15.989 9.20391 16.1367 9.34453L17.1457 10.3043C17.2546 10.4098 17.3496 10.5293 17.4269 10.6559C17.7152 11.134 17.6097 11.6332 17.5218 11.9004C17.1421 13.0148 16.5445 14.0484 15.7675 14.9344C15.5812 15.1453 15.1945 15.4934 14.632 15.4758C14.4878 15.4723 14.3437 15.4477 14.2031 15.409L12.8671 15.0117C12.6667 14.952 12.3222 15.1523 12.273 15.3562L11.946 16.7098C11.9109 16.8574 11.8546 16.998 11.7843 17.1246C11.5136 17.6168 11.025 17.775 10.7507 17.8313C10.1812 17.9402 9.59761 18 8.99995 18C8.4023 18 7.8187 17.9402 7.24917 17.8313C6.97144 17.7785 6.48276 17.6168 6.21558 17.1246C6.14526 16.9945 6.08901 16.8574 6.05386 16.7098L5.7269 15.3562C5.67769 15.1523 5.33315 14.952 5.13276 15.0117L3.79683 15.4055C3.6562 15.4477 3.51206 15.4688 3.36792 15.4723C2.8019 15.4898 2.4187 15.1418 2.23237 14.9309C1.45894 14.0484 0.857763 13.0113 0.478076 11.8969C0.38667 11.6297 0.281201 11.1305 0.572998 10.6523C0.650341 10.5258 0.745263 10.4062 0.854248 10.3008L1.86323 9.34102C2.01089 9.20039 2.01089 8.79609 1.86323 8.65547L0.850732 7.6957C0.741748 7.59023 0.646826 7.4707 0.569482 7.34414C0.281201 6.86602 0.38667 6.3668 0.478076 6.10313C0.857763 4.98867 1.45542 3.95508 2.23237 3.06914C2.4187 2.8582 2.80542 2.51016 3.36792 2.52773C3.51206 2.53125 3.6562 2.55586 3.79683 2.59453L5.13276 2.98828C5.33315 3.04805 5.67769 2.84766 5.7269 2.64375L6.05386 1.29023C6.08901 1.14258 6.14526 1.00195 6.21558 0.875391C6.48628 0.383203 6.97495 0.225 7.24917 0.16875C7.8187 0.0597656 8.4023 0 8.99995 0ZM7.66753 1.80703L7.3687 3.04102C7.09448 4.17656 5.77612 4.93594 4.65464 4.60898L3.44175 4.25039C2.86167 4.92891 2.40464 5.71641 2.10581 6.56016L3.0269 7.43555C3.87065 8.23711 3.87065 9.76289 3.0269 10.5645L2.10581 11.4398C2.40464 12.2836 2.86167 13.0711 3.44175 13.7496L4.65815 13.391C5.77612 13.0605 7.098 13.8234 7.37222 14.959L7.67104 16.193C8.53589 16.3512 9.47456 16.3512 10.3394 16.193L10.6382 14.959C10.9125 13.8234 12.2308 13.0641 13.3523 13.391L14.5687 13.7496C15.1488 13.0711 15.6058 12.2836 15.9046 11.4398L14.9835 10.5645C14.1398 9.76289 14.1398 8.23711 14.9835 7.43555L15.9046 6.56016C15.6058 5.71641 15.1488 4.92891 14.5687 4.25039L13.3523 4.60898C12.2343 4.93945 10.9125 4.17656 10.6382 3.04102L10.3394 1.80703C9.47456 1.64883 8.53589 1.64883 7.67104 1.80703H7.66753ZM7.31245 9C7.31245 9.44755 7.49024 9.87678 7.80671 10.1932C8.12318 10.5097 8.5524 10.6875 8.99995 10.6875C9.4475 10.6875 9.87673 10.5097 10.1932 10.1932C10.5097 9.87678 10.6875 9.44755 10.6875 9C10.6875 8.55245 10.5097 8.12322 10.1932 7.80676C9.87673 7.49029 9.4475 7.3125 8.99995 7.3125C8.5524 7.3125 8.12318 7.49029 7.80671 7.80676C7.49024 8.12322 7.31245 8.55245 7.31245 9ZM8.99995 12.375C8.10485 12.375 7.2464 12.0194 6.61347 11.3865C5.98053 10.7536 5.62495 9.89511 5.62495 9C5.62495 8.10489 5.98053 7.24645 6.61347 6.61351C7.2464 5.98058 8.10485 5.625 8.99995 5.625C9.89506 5.625 10.7535 5.98058 11.3864 6.61351C12.0194 7.24645 12.375 8.10489 12.375 9C12.375 9.89511 12.0194 10.7536 11.3864 11.3865C10.7535 12.0194 9.89506 12.375 8.99995 12.375Z" fill="white"/>
</g>
</g>
<defs>
<clipPath id="clip0_2712_43359">
<rect width="18" height="18" fill="white"/>
</clipPath>
</defs>
</svg>
