<svg width="16" height="16" viewBox="0 0 16 16" fill="none" xmlns="http://www.w3.org/2000/svg">
<g opacity="0.5" clip-path="url(#clip0_2712_43445)">
<path d="M1.33325 14.6666H14.6666" stroke="white" stroke-miterlimit="10" stroke-linecap="round" stroke-linejoin="round"/>
<path d="M6.5 2.66671V14.6667H9.5V2.66671C9.5 1.93337 9.2 1.33337 8.3 1.33337H7.7C6.8 1.33337 6.5 1.93337 6.5 2.66671ZM2 6.66671V14.6667H4.66667V6.66671C4.66667 5.93337 4.4 5.33337 3.6 5.33337H3.06667C2.26667 5.33337 2 5.93337 2 6.66671ZM11.3333 10V14.6667H14V10C14 9.26671 13.7333 8.66671 12.9333 8.66671H12.4C11.6 8.66671 11.3333 9.26671 11.3333 10Z" stroke="white" stroke-linecap="round" stroke-linejoin="round"/>
</g>
<defs>
<clipPath id="clip0_2712_43445">
<rect width="16" height="16" fill="white"/>
</clipPath>
</defs>
</svg>
