<svg width="18" height="17" viewBox="0 0 18 17" fill="none" xmlns="http://www.w3.org/2000/svg">
<mask id="mask0_2712_43336" style="mask-type:alpha" maskUnits="userSpaceOnUse" x="0" y="0" width="11" height="17">
<path d="M0 0H10.2305V16.2896H0V0Z" fill="white"/>
</mask>
<g mask="url(#mask0_2712_43336)">
<path fill-rule="evenodd" clip-rule="evenodd" d="M2.64994 0L9.97195 7.50868C10.3182 7.86376 10.3167 8.43987 9.96864 8.79292L2.58148 16.2896L0 13.5875L4.67538 8.79292C5.02031 8.43919 5.02031 7.8658 4.67538 7.51207L0 2.7175L2.64994 0Z" fill="#18A0FB"/>
</g>
<mask id="mask1_2712_43336" style="mask-type:alpha" maskUnits="userSpaceOnUse" x="7" y="0" width="11" height="17">
<path d="M7.70044 0H17.931V16.2896H7.70044V0Z" fill="white"/>
</mask>
<g mask="url(#mask1_2712_43336)">
<path fill-rule="evenodd" clip-rule="evenodd" d="M10.3504 0L17.6724 7.50868C18.0187 7.86376 18.0171 8.43987 17.6691 8.79292L10.2819 16.2896L7.70044 13.5875L12.3758 8.79292C12.7208 8.43919 12.7208 7.8658 12.3758 7.51207L7.70044 2.7175L10.3504 0Z" fill="#CEEDFF"/>
</g>
</svg>
